# xmcd
#
# Track frame offsets: 
#        150
#        21488
#        43676
#        63833
#        85163
#        104277
#        128084
#        149228
#        170176
#        191675
#        210768
#        232809
#        258816
#        277153
#        297747
#        317055
#        319989
#
# Disc length: 4439 seconds
#
# Revision: 10
# Processed by: cddbd v1.5.1PL2 Copyright (c) Steve Scherf et al.
# Submitted via: ExactAudioCopy v0.95b3
#
DISCID=07115511
DTITLE=女子十二乐坊 - 敦煌
DYEAR=2005
DGENRE=Instrumental Pop
TTITLE0=流转
TTITLE1=大地轻声
TTITLE2=敦煌
TTITLE3=从开始到现在
TTITLE4=花
TTITLE5=疏勒河
TTITLE6=莫高窟
TTITLE7=浪漫的能量
TTITLE8=雅丹天女
TTITLE9=异邦人
TTITLE10=阳关古道
TTITLE11=花样年华
TTITLE12=月牙泉
TTITLE13=山鹰
TTITLE14=盛唐乐坊
TTITLE15=十面埋伏
TTITLE16=Lovers
EXTD=YEAR: 2005
EXTT0=
EXTT1=
EXTT2=
EXTT3=
EXTT4=
EXTT5=
EXTT6=
EXTT7=
EXTT8=
EXTT9=
EXTT10=
EXTT11=
EXTT12=
EXTT13=
EXTT14=
EXTT15=
EXTT16=
PLAYORDER=
